<svg id="visual" viewBox="0 0 900 600" width="900" height="600" xmlns="http://www.w3.org/2000/svg" xmlns:xlink="http://www.w3.org/1999/xlink" version="1.1"><rect x="0" y="0" width="900" height="600" fill="#002233"></rect><path d="M0 419L21.5 415.8C43 412.7 86 406.3 128.8 411.2C171.7 416 214.3 432 257.2 447.7C300 463.3 343 478.7 385.8 473.2C428.7 467.7 471.3 441.3 514.2 444C557 446.7 600 478.3 642.8 492.7C685.7 507 728.3 504 771.2 496.3C814 488.7 857 476.3 878.5 470.2L900 464L900 601L878.5 601C857 601 814 601 771.2 601C728.3 601 685.7 601 642.8 601C600 601 557 601 514.2 601C471.3 601 428.7 601 385.8 601C343 601 300 601 257.2 601C214.3 601 171.7 601 128.8 601C86 601 43 601 21.5 601L0 601Z" fill="#0066FF" stroke-linecap="round" stroke-linejoin="miter"></path></svg>